<svg xmlns="http://www.w3.org/2000/svg" width="1024" height="1024" viewBox="0 0 1024 1024">
  <defs>
    <clipPath id="clip"><rect x="36" y="36" width="952" height="952" rx="170" ry="170"/></clipPath>
    <linearGradient id="bg" x1="0" y1="0" x2="1" y2="1">
      <stop offset="0%" stop-color="#0f172a"/>
      <stop offset="100%" stop-color="#16233d"/>
    </linearGradient>
    <filter id="glow" x="-40%" y="-40%" width="180%" height="180%">
      <feGaussianBlur stdDeviation="3" result="b"/>
      <feMerge><feMergeNode in="b"/><feMergeNode in="SourceGraphic"/></feMerge>
    </filter>
    <filter id="soft" x="-40%" y="-40%" width="180%" height="180%">
      <feGaussianBlur stdDeviation="1.2" result="b"/>
      <feMerge><feMergeNode in="b"/><feMergeNode in="SourceGraphic"/></feMerge>
    </filter>
  </defs>
  <g clip-path="url(#clip)">
    <rect width="1024" height="1024" fill="url(#bg)"/>
<line x1="48" y1="40" x2="48" y2="984" stroke="#22304b" stroke-opacity="0.35" stroke-width="1"/><line x1="76" y1="40" x2="76" y2="984" stroke="#22304b" stroke-opacity="0.35" stroke-width="1"/><line x1="104" y1="40" x2="104" y2="984" stroke="#22304b" stroke-opacity="0.35" stroke-width="1"/><line x1="132" y1="40" x2="132" y2="984" stroke="#22304b" stroke-opacity="0.35" stroke-width="1"/><line x1="160" y1="40" x2="160" y2="984" stroke="#22304b" stroke-opacity="0.35" stroke-width="1"/><line x1="188" y1="40" x2="188" y2="984" stroke="#22304b" stroke-opacity="0.35" stroke-width="1"/><line x1="216" y1="40" x2="216" y2="984" stroke="#22304b" stroke-opacity="0.35" stroke-width="1"/><line x1="244" y1="40" x2="244" y2="984" stroke="#22304b" stroke-opacity="0.35" stroke-width="1"/><line x1="272" y1="40" x2="272" y2="984" stroke="#22304b" stroke-opacity="0.35" stroke-width="1"/><line x1="300" y1="40" x2="300" y2="984" stroke="#22304b" stroke-opacity="0.35" stroke-width="1"/><line x1="328" y1="40" x2="328" y2="984" stroke="#22304b" stroke-opacity="0.35" stroke-width="1"/><line x1="356" y1="40" x2="356" y2="984" stroke="#22304b" stroke-opacity="0.35" stroke-width="1"/><line x1="384" y1="40" x2="384" y2="984" stroke="#22304b" stroke-opacity="0.35" stroke-width="1"/><line x1="412" y1="40" x2="412" y2="984" stroke="#22304b" stroke-opacity="0.35" stroke-width="1"/><line x1="440" y1="40" x2="440" y2="984" stroke="#22304b" stroke-opacity="0.35" stroke-width="1"/><line x1="468" y1="40" x2="468" y2="984" stroke="#22304b" stroke-opacity="0.35" stroke-width="1"/><line x1="496" y1="40" x2="496" y2="984" stroke="#22304b" stroke-opacity="0.35" stroke-width="1"/><line x1="524" y1="40" x2="524" y2="984" stroke="#22304b" stroke-opacity="0.35" stroke-width="1"/><line x1="552" y1="40" x2="552" y2="984" stroke="#22304b" stroke-opacity="0.35" stroke-width="1"/><line x1="580" y1="40" x2="580" y2="984" stroke="#22304b" stroke-opacity="0.35" stroke-width="1"/><line x1="608" y1="40" x2="608" y2="984" stroke="#22304b" stroke-opacity="0.35" stroke-width="1"/><line x1="636" y1="40" x2="636" y2="984" stroke="#22304b" stroke-opacity="0.35" stroke-width="1"/><line x1="664" y1="40" x2="664" y2="984" stroke="#22304b" stroke-opacity="0.35" stroke-width="1"/><line x1="692" y1="40" x2="692" y2="984" stroke="#22304b" stroke-opacity="0.35" stroke-width="1"/><line x1="720" y1="40" x2="720" y2="984" stroke="#22304b" stroke-opacity="0.35" stroke-width="1"/><line x1="748" y1="40" x2="748" y2="984" stroke="#22304b" stroke-opacity="0.35" stroke-width="1"/><line x1="776" y1="40" x2="776" y2="984" stroke="#22304b" stroke-opacity="0.35" stroke-width="1"/><line x1="804" y1="40" x2="804" y2="984" stroke="#22304b" stroke-opacity="0.35" stroke-width="1"/><line x1="832" y1="40" x2="832" y2="984" stroke="#22304b" stroke-opacity="0.35" stroke-width="1"/><line x1="860" y1="40" x2="860" y2="984" stroke="#22304b" stroke-opacity="0.35" stroke-width="1"/><line x1="888" y1="40" x2="888" y2="984" stroke="#22304b" stroke-opacity="0.35" stroke-width="1"/><line x1="916" y1="40" x2="916" y2="984" stroke="#22304b" stroke-opacity="0.35" stroke-width="1"/><line x1="944" y1="40" x2="944" y2="984" stroke="#22304b" stroke-opacity="0.35" stroke-width="1"/><line x1="972" y1="40" x2="972" y2="984" stroke="#22304b" stroke-opacity="0.35" stroke-width="1"/><line x1="40" y1="48" x2="984" y2="48" stroke="#22304b" stroke-opacity="0.35" stroke-width="1"/><line x1="40" y1="76" x2="984" y2="76" stroke="#22304b" stroke-opacity="0.35" stroke-width="1"/><line x1="40" y1="104" x2="984" y2="104" stroke="#22304b" stroke-opacity="0.35" stroke-width="1"/><line x1="40" y1="132" x2="984" y2="132" stroke="#22304b" stroke-opacity="0.35" stroke-width="1"/><line x1="40" y1="160" x2="984" y2="160" stroke="#22304b" stroke-opacity="0.35" stroke-width="1"/><line x1="40" y1="188" x2="984" y2="188" stroke="#22304b" stroke-opacity="0.35" stroke-width="1"/><line x1="40" y1="216" x2="984" y2="216" stroke="#22304b" stroke-opacity="0.35" stroke-width="1"/><line x1="40" y1="244" x2="984" y2="244" stroke="#22304b" stroke-opacity="0.35" stroke-width="1"/><line x1="40" y1="272" x2="984" y2="272" stroke="#22304b" stroke-opacity="0.35" stroke-width="1"/><line x1="40" y1="300" x2="984" y2="300" stroke="#22304b" stroke-opacity="0.35" stroke-width="1"/><line x1="40" y1="328" x2="984" y2="328" stroke="#22304b" stroke-opacity="0.35" stroke-width="1"/><line x1="40" y1="356" x2="984" y2="356" stroke="#22304b" stroke-opacity="0.35" stroke-width="1"/><line x1="40" y1="384" x2="984" y2="384" stroke="#22304b" stroke-opacity="0.35" stroke-width="1"/><line x1="40" y1="412" x2="984" y2="412" stroke="#22304b" stroke-opacity="0.35" stroke-width="1"/><line x1="40" y1="440" x2="984" y2="440" stroke="#22304b" stroke-opacity="0.35" stroke-width="1"/><line x1="40" y1="468" x2="984" y2="468" stroke="#22304b" stroke-opacity="0.35" stroke-width="1"/><line x1="40" y1="496" x2="984" y2="496" stroke="#22304b" stroke-opacity="0.35" stroke-width="1"/><line x1="40" y1="524" x2="984" y2="524" stroke="#22304b" stroke-opacity="0.35" stroke-width="1"/><line x1="40" y1="552" x2="984" y2="552" stroke="#22304b" stroke-opacity="0.35" stroke-width="1"/><line x1="40" y1="580" x2="984" y2="580" stroke="#22304b" stroke-opacity="0.35" stroke-width="1"/><line x1="40" y1="608" x2="984" y2="608" stroke="#22304b" stroke-opacity="0.35" stroke-width="1"/><line x1="40" y1="636" x2="984" y2="636" stroke="#22304b" stroke-opacity="0.35" stroke-width="1"/><line x1="40" y1="664" x2="984" y2="664" stroke="#22304b" stroke-opacity="0.35" stroke-width="1"/><line x1="40" y1="692" x2="984" y2="692" stroke="#22304b" stroke-opacity="0.35" stroke-width="1"/><line x1="40" y1="720" x2="984" y2="720" stroke="#22304b" stroke-opacity="0.35" stroke-width="1"/><line x1="40" y1="748" x2="984" y2="748" stroke="#22304b" stroke-opacity="0.35" stroke-width="1"/><line x1="40" y1="776" x2="984" y2="776" stroke="#22304b" stroke-opacity="0.35" stroke-width="1"/><line x1="40" y1="804" x2="984" y2="804" stroke="#22304b" stroke-opacity="0.35" stroke-width="1"/><line x1="40" y1="832" x2="984" y2="832" stroke="#22304b" stroke-opacity="0.35" stroke-width="1"/><line x1="40" y1="860" x2="984" y2="860" stroke="#22304b" stroke-opacity="0.35" stroke-width="1"/><line x1="40" y1="888" x2="984" y2="888" stroke="#22304b" stroke-opacity="0.35" stroke-width="1"/><line x1="40" y1="916" x2="984" y2="916" stroke="#22304b" stroke-opacity="0.35" stroke-width="1"/><line x1="40" y1="944" x2="984" y2="944" stroke="#22304b" stroke-opacity="0.35" stroke-width="1"/><line x1="40" y1="972" x2="984" y2="972" stroke="#22304b" stroke-opacity="0.35" stroke-width="1"/>
<polygon points="56,160 56,380 190,332 190,205" fill="#14b8a6" fill-opacity="0.10"/>
<polygon points="968,650 968,860 835,818 835,694" fill="#14b8a6" fill-opacity="0.08"/>
<g filter="url(#soft)"><line x1="131" y1="158" x2="154" y2="158" stroke="#14b8a6" stroke-opacity="0.62" stroke-width="3"/><line x1="135.1" y1="151" x2="135.1" y2="161" stroke="#5eead4" stroke-opacity="0.42" stroke-width="3"/><line x1="140.4" y1="151" x2="140.4" y2="161" stroke="#5eead4" stroke-opacity="0.42" stroke-width="3"/><line x1="145.7" y1="151" x2="145.7" y2="161" stroke="#5eead4" stroke-opacity="0.42" stroke-width="3"/><line x1="95" y1="174" x2="166" y2="174" stroke="#14b8a6" stroke-opacity="0.62" stroke-width="3"/><line x1="107.8" y1="167" x2="107.8" y2="177" stroke="#5eead4" stroke-opacity="0.42" stroke-width="3"/><line x1="124.1" y1="167" x2="124.1" y2="177" stroke="#5eead4" stroke-opacity="0.42" stroke-width="3"/><line x1="140.4" y1="167" x2="140.4" y2="177" stroke="#5eead4" stroke-opacity="0.42" stroke-width="3"/><line x1="113" y1="190" x2="178" y2="190" stroke="#14b8a6" stroke-opacity="0.62" stroke-width="3"/><line x1="124.7" y1="183" x2="124.7" y2="193" stroke="#5eead4" stroke-opacity="0.42" stroke-width="3"/><line x1="139.7" y1="183" x2="139.7" y2="193" stroke="#5eead4" stroke-opacity="0.42" stroke-width="3"/><line x1="154.6" y1="183" x2="154.6" y2="193" stroke="#5eead4" stroke-opacity="0.42" stroke-width="3"/><line x1="131" y1="206" x2="190" y2="206" stroke="#14b8a6" stroke-opacity="0.62" stroke-width="3"/><line x1="141.6" y1="199" x2="141.6" y2="209" stroke="#5eead4" stroke-opacity="0.42" stroke-width="3"/><line x1="155.2" y1="199" x2="155.2" y2="209" stroke="#5eead4" stroke-opacity="0.42" stroke-width="3"/><line x1="168.8" y1="199" x2="168.8" y2="209" stroke="#5eead4" stroke-opacity="0.42" stroke-width="3"/><line x1="95" y1="222" x2="154" y2="222" stroke="#14b8a6" stroke-opacity="0.62" stroke-width="3"/><line x1="105.6" y1="215" x2="105.6" y2="225" stroke="#5eead4" stroke-opacity="0.42" stroke-width="3"/><line x1="119.2" y1="215" x2="119.2" y2="225" stroke="#5eead4" stroke-opacity="0.42" stroke-width="3"/><line x1="132.8" y1="215" x2="132.8" y2="225" stroke="#5eead4" stroke-opacity="0.42" stroke-width="3"/><line x1="113" y1="238" x2="166" y2="238" stroke="#14b8a6" stroke-opacity="0.62" stroke-width="3"/><line x1="122.5" y1="231" x2="122.5" y2="241" stroke="#5eead4" stroke-opacity="0.42" stroke-width="3"/><line x1="134.7" y1="231" x2="134.7" y2="241" stroke="#5eead4" stroke-opacity="0.42" stroke-width="3"/><line x1="146.9" y1="231" x2="146.9" y2="241" stroke="#5eead4" stroke-opacity="0.42" stroke-width="3"/><line x1="131" y1="254" x2="178" y2="254" stroke="#14b8a6" stroke-opacity="0.62" stroke-width="3"/><line x1="139.5" y1="247" x2="139.5" y2="257" stroke="#5eead4" stroke-opacity="0.42" stroke-width="3"/><line x1="150.3" y1="247" x2="150.3" y2="257" stroke="#5eead4" stroke-opacity="0.42" stroke-width="3"/><line x1="161.1" y1="247" x2="161.1" y2="257" stroke="#5eead4" stroke-opacity="0.42" stroke-width="3"/><line x1="95" y1="270" x2="190" y2="270" stroke="#14b8a6" stroke-opacity="0.62" stroke-width="3"/><line x1="112.1" y1="263" x2="112.1" y2="273" stroke="#5eead4" stroke-opacity="0.42" stroke-width="3"/><line x1="133.9" y1="263" x2="133.9" y2="273" stroke="#5eead4" stroke-opacity="0.42" stroke-width="3"/><line x1="155.8" y1="263" x2="155.8" y2="273" stroke="#5eead4" stroke-opacity="0.42" stroke-width="3"/><line x1="113" y1="286" x2="178" y2="286" stroke="#14b8a6" stroke-opacity="0.62" stroke-width="3"/><line x1="124.7" y1="279" x2="124.7" y2="289" stroke="#5eead4" stroke-opacity="0.42" stroke-width="3"/><line x1="139.7" y1="279" x2="139.7" y2="289" stroke="#5eead4" stroke-opacity="0.42" stroke-width="3"/><line x1="154.6" y1="279" x2="154.6" y2="289" stroke="#5eead4" stroke-opacity="0.42" stroke-width="3"/><line x1="131" y1="302" x2="166" y2="302" stroke="#14b8a6" stroke-opacity="0.62" stroke-width="3"/><line x1="137.3" y1="295" x2="137.3" y2="305" stroke="#5eead4" stroke-opacity="0.42" stroke-width="3"/><line x1="145.3" y1="295" x2="145.3" y2="305" stroke="#5eead4" stroke-opacity="0.42" stroke-width="3"/><line x1="153.4" y1="295" x2="153.4" y2="305" stroke="#5eead4" stroke-opacity="0.42" stroke-width="3"/><line x1="95" y1="318" x2="154" y2="318" stroke="#14b8a6" stroke-opacity="0.62" stroke-width="3"/><line x1="105.6" y1="311" x2="105.6" y2="321" stroke="#5eead4" stroke-opacity="0.42" stroke-width="3"/><line x1="119.2" y1="311" x2="119.2" y2="321" stroke="#5eead4" stroke-opacity="0.42" stroke-width="3"/><line x1="132.8" y1="311" x2="132.8" y2="321" stroke="#5eead4" stroke-opacity="0.42" stroke-width="3"/><line x1="113" y1="334" x2="190" y2="334" stroke="#14b8a6" stroke-opacity="0.62" stroke-width="3"/><line x1="126.9" y1="327" x2="126.9" y2="337" stroke="#5eead4" stroke-opacity="0.42" stroke-width="3"/><line x1="144.6" y1="327" x2="144.6" y2="337" stroke="#5eead4" stroke-opacity="0.42" stroke-width="3"/><line x1="162.3" y1="327" x2="162.3" y2="337" stroke="#5eead4" stroke-opacity="0.42" stroke-width="3"/><line x1="131" y1="350" x2="178" y2="350" stroke="#14b8a6" stroke-opacity="0.62" stroke-width="3"/><line x1="139.5" y1="343" x2="139.5" y2="353" stroke="#5eead4" stroke-opacity="0.42" stroke-width="3"/><line x1="150.3" y1="343" x2="150.3" y2="353" stroke="#5eead4" stroke-opacity="0.42" stroke-width="3"/><line x1="161.1" y1="343" x2="161.1" y2="353" stroke="#5eead4" stroke-opacity="0.42" stroke-width="3"/><line x1="95" y1="366" x2="166" y2="366" stroke="#14b8a6" stroke-opacity="0.62" stroke-width="3"/><line x1="107.8" y1="359" x2="107.8" y2="369" stroke="#5eead4" stroke-opacity="0.42" stroke-width="3"/><line x1="124.1" y1="359" x2="124.1" y2="369" stroke="#5eead4" stroke-opacity="0.42" stroke-width="3"/><line x1="140.4" y1="359" x2="140.4" y2="369" stroke="#5eead4" stroke-opacity="0.42" stroke-width="3"/><line x1="113" y1="382" x2="154" y2="382" stroke="#14b8a6" stroke-opacity="0.62" stroke-width="3"/><line x1="120.4" y1="375" x2="120.4" y2="385" stroke="#5eead4" stroke-opacity="0.42" stroke-width="3"/><line x1="129.8" y1="375" x2="129.8" y2="385" stroke="#5eead4" stroke-opacity="0.42" stroke-width="3"/><line x1="139.2" y1="375" x2="139.2" y2="385" stroke="#5eead4" stroke-opacity="0.42" stroke-width="3"/><line x1="866" y1="648" x2="893" y2="648" stroke="#14b8a6" stroke-opacity="0.62" stroke-width="3"/><line x1="870.9" y1="641" x2="870.9" y2="651" stroke="#5eead4" stroke-opacity="0.42" stroke-width="3"/><line x1="877.1" y1="641" x2="877.1" y2="651" stroke="#5eead4" stroke-opacity="0.42" stroke-width="3"/><line x1="883.3" y1="641" x2="883.3" y2="651" stroke="#5eead4" stroke-opacity="0.42" stroke-width="3"/><line x1="854" y1="664" x2="929" y2="664" stroke="#14b8a6" stroke-opacity="0.62" stroke-width="3"/><line x1="867.5" y1="657" x2="867.5" y2="667" stroke="#5eead4" stroke-opacity="0.42" stroke-width="3"/><line x1="884.8" y1="657" x2="884.8" y2="667" stroke="#5eead4" stroke-opacity="0.42" stroke-width="3"/><line x1="902.0" y1="657" x2="902.0" y2="667" stroke="#5eead4" stroke-opacity="0.42" stroke-width="3"/><line x1="842" y1="680" x2="911" y2="680" stroke="#14b8a6" stroke-opacity="0.62" stroke-width="3"/><line x1="854.4" y1="673" x2="854.4" y2="683" stroke="#5eead4" stroke-opacity="0.42" stroke-width="3"/><line x1="870.3" y1="673" x2="870.3" y2="683" stroke="#5eead4" stroke-opacity="0.42" stroke-width="3"/><line x1="886.2" y1="673" x2="886.2" y2="683" stroke="#5eead4" stroke-opacity="0.42" stroke-width="3"/><line x1="830" y1="696" x2="893" y2="696" stroke="#14b8a6" stroke-opacity="0.62" stroke-width="3"/><line x1="841.3" y1="689" x2="841.3" y2="699" stroke="#5eead4" stroke-opacity="0.42" stroke-width="3"/><line x1="855.8" y1="689" x2="855.8" y2="699" stroke="#5eead4" stroke-opacity="0.42" stroke-width="3"/><line x1="870.3" y1="689" x2="870.3" y2="699" stroke="#5eead4" stroke-opacity="0.42" stroke-width="3"/><line x1="866" y1="712" x2="929" y2="712" stroke="#14b8a6" stroke-opacity="0.62" stroke-width="3"/><line x1="877.3" y1="705" x2="877.3" y2="715" stroke="#5eead4" stroke-opacity="0.42" stroke-width="3"/><line x1="891.8" y1="705" x2="891.8" y2="715" stroke="#5eead4" stroke-opacity="0.42" stroke-width="3"/><line x1="906.3" y1="705" x2="906.3" y2="715" stroke="#5eead4" stroke-opacity="0.42" stroke-width="3"/><line x1="854" y1="728" x2="911" y2="728" stroke="#14b8a6" stroke-opacity="0.62" stroke-width="3"/><line x1="864.3" y1="721" x2="864.3" y2="731" stroke="#5eead4" stroke-opacity="0.42" stroke-width="3"/><line x1="877.4" y1="721" x2="877.4" y2="731" stroke="#5eead4" stroke-opacity="0.42" stroke-width="3"/><line x1="890.5" y1="721" x2="890.5" y2="731" stroke="#5eead4" stroke-opacity="0.42" stroke-width="3"/><line x1="842" y1="744" x2="893" y2="744" stroke="#14b8a6" stroke-opacity="0.62" stroke-width="3"/><line x1="851.2" y1="737" x2="851.2" y2="747" stroke="#5eead4" stroke-opacity="0.42" stroke-width="3"/><line x1="862.9" y1="737" x2="862.9" y2="747" stroke="#5eead4" stroke-opacity="0.42" stroke-width="3"/><line x1="874.6" y1="737" x2="874.6" y2="747" stroke="#5eead4" stroke-opacity="0.42" stroke-width="3"/><line x1="830" y1="760" x2="929" y2="760" stroke="#14b8a6" stroke-opacity="0.62" stroke-width="3"/><line x1="847.8" y1="753" x2="847.8" y2="763" stroke="#5eead4" stroke-opacity="0.42" stroke-width="3"/><line x1="870.6" y1="753" x2="870.6" y2="763" stroke="#5eead4" stroke-opacity="0.42" stroke-width="3"/><line x1="893.4" y1="753" x2="893.4" y2="763" stroke="#5eead4" stroke-opacity="0.42" stroke-width="3"/><line x1="842" y1="776" x2="911" y2="776" stroke="#14b8a6" stroke-opacity="0.62" stroke-width="3"/><line x1="854.4" y1="769" x2="854.4" y2="779" stroke="#5eead4" stroke-opacity="0.42" stroke-width="3"/><line x1="870.3" y1="769" x2="870.3" y2="779" stroke="#5eead4" stroke-opacity="0.42" stroke-width="3"/><line x1="886.2" y1="769" x2="886.2" y2="779" stroke="#5eead4" stroke-opacity="0.42" stroke-width="3"/><line x1="854" y1="792" x2="893" y2="792" stroke="#14b8a6" stroke-opacity="0.62" stroke-width="3"/><line x1="861.0" y1="785" x2="861.0" y2="795" stroke="#5eead4" stroke-opacity="0.42" stroke-width="3"/><line x1="870.0" y1="785" x2="870.0" y2="795" stroke="#5eead4" stroke-opacity="0.42" stroke-width="3"/><line x1="879.0" y1="785" x2="879.0" y2="795" stroke="#5eead4" stroke-opacity="0.42" stroke-width="3"/><line x1="866" y1="808" x2="929" y2="808" stroke="#14b8a6" stroke-opacity="0.62" stroke-width="3"/><line x1="877.3" y1="801" x2="877.3" y2="811" stroke="#5eead4" stroke-opacity="0.42" stroke-width="3"/><line x1="891.8" y1="801" x2="891.8" y2="811" stroke="#5eead4" stroke-opacity="0.42" stroke-width="3"/><line x1="906.3" y1="801" x2="906.3" y2="811" stroke="#5eead4" stroke-opacity="0.42" stroke-width="3"/><line x1="830" y1="824" x2="911" y2="824" stroke="#14b8a6" stroke-opacity="0.62" stroke-width="3"/><line x1="844.6" y1="817" x2="844.6" y2="827" stroke="#5eead4" stroke-opacity="0.42" stroke-width="3"/><line x1="863.2" y1="817" x2="863.2" y2="827" stroke="#5eead4" stroke-opacity="0.42" stroke-width="3"/><line x1="881.8" y1="817" x2="881.8" y2="827" stroke="#5eead4" stroke-opacity="0.42" stroke-width="3"/><line x1="842" y1="840" x2="893" y2="840" stroke="#14b8a6" stroke-opacity="0.62" stroke-width="3"/><line x1="851.2" y1="833" x2="851.2" y2="843" stroke="#5eead4" stroke-opacity="0.42" stroke-width="3"/><line x1="862.9" y1="833" x2="862.9" y2="843" stroke="#5eead4" stroke-opacity="0.42" stroke-width="3"/><line x1="874.6" y1="833" x2="874.6" y2="843" stroke="#5eead4" stroke-opacity="0.42" stroke-width="3"/><line x1="854" y1="856" x2="929" y2="856" stroke="#14b8a6" stroke-opacity="0.62" stroke-width="3"/><line x1="867.5" y1="849" x2="867.5" y2="859" stroke="#5eead4" stroke-opacity="0.42" stroke-width="3"/><line x1="884.8" y1="849" x2="884.8" y2="859" stroke="#5eead4" stroke-opacity="0.42" stroke-width="3"/><line x1="902.0" y1="849" x2="902.0" y2="859" stroke="#5eead4" stroke-opacity="0.42" stroke-width="3"/><line x1="866" y1="872" x2="911" y2="872" stroke="#14b8a6" stroke-opacity="0.62" stroke-width="3"/><line x1="874.1" y1="865" x2="874.1" y2="875" stroke="#5eead4" stroke-opacity="0.42" stroke-width="3"/><line x1="884.5" y1="865" x2="884.5" y2="875" stroke="#5eead4" stroke-opacity="0.42" stroke-width="3"/><line x1="894.8" y1="865" x2="894.8" y2="875" stroke="#5eead4" stroke-opacity="0.42" stroke-width="3"/></g>
    <g filter="url(#glow)">
      <circle cx="260" cy="270" r="118" fill="none" stroke="#4b5d7a" stroke-opacity="0.32" stroke-width="18"/>
      <circle cx="260" cy="270" r="98" fill="none" stroke="#2c3e59" stroke-opacity="0.5" stroke-width="10"/>
      <circle cx="260" cy="270" r="88" fill="#5eead4" fill-opacity="0.72" stroke="#0ea5a0" stroke-width="3"/>
      <circle cx="260" cy="270" r="34" fill="#020617"/>
    <line x1="302.0" y1="270.0" x2="336.0" y2="270.0" stroke="#b6fffb" stroke-opacity="0.34" stroke-width="2"/><line x1="300.9" y1="279.3" x2="334.1" y2="286.9" stroke="#b6fffb" stroke-opacity="0.34" stroke-width="2"/><line x1="297.8" y1="288.2" x2="328.5" y2="303.0" stroke="#b6fffb" stroke-opacity="0.34" stroke-width="2"/><line x1="292.8" y1="296.2" x2="319.4" y2="317.4" stroke="#b6fffb" stroke-opacity="0.34" stroke-width="2"/><line x1="286.2" y1="302.8" x2="307.4" y2="329.4" stroke="#b6fffb" stroke-opacity="0.34" stroke-width="2"/><line x1="278.2" y1="307.8" x2="293.0" y2="338.5" stroke="#b6fffb" stroke-opacity="0.34" stroke-width="2"/><line x1="269.3" y1="310.9" x2="276.9" y2="344.1" stroke="#b6fffb" stroke-opacity="0.34" stroke-width="2"/><line x1="260.0" y1="312.0" x2="260.0" y2="346.0" stroke="#b6fffb" stroke-opacity="0.34" stroke-width="2"/><line x1="250.7" y1="310.9" x2="243.1" y2="344.1" stroke="#b6fffb" stroke-opacity="0.34" stroke-width="2"/><line x1="241.8" y1="307.8" x2="227.0" y2="338.5" stroke="#b6fffb" stroke-opacity="0.34" stroke-width="2"/><line x1="233.8" y1="302.8" x2="212.6" y2="329.4" stroke="#b6fffb" stroke-opacity="0.34" stroke-width="2"/><line x1="227.2" y1="296.2" x2="200.6" y2="317.4" stroke="#b6fffb" stroke-opacity="0.34" stroke-width="2"/><line x1="222.2" y1="288.2" x2="191.5" y2="303.0" stroke="#b6fffb" stroke-opacity="0.34" stroke-width="2"/><line x1="219.1" y1="279.3" x2="185.9" y2="286.9" stroke="#b6fffb" stroke-opacity="0.34" stroke-width="2"/><line x1="218.0" y1="270.0" x2="184.0" y2="270.0" stroke="#b6fffb" stroke-opacity="0.34" stroke-width="2"/><line x1="219.1" y1="260.7" x2="185.9" y2="253.1" stroke="#b6fffb" stroke-opacity="0.34" stroke-width="2"/><line x1="222.2" y1="251.8" x2="191.5" y2="237.0" stroke="#b6fffb" stroke-opacity="0.34" stroke-width="2"/><line x1="227.2" y1="243.8" x2="200.6" y2="222.6" stroke="#b6fffb" stroke-opacity="0.34" stroke-width="2"/><line x1="233.8" y1="237.2" x2="212.6" y2="210.6" stroke="#b6fffb" stroke-opacity="0.34" stroke-width="2"/><line x1="241.8" y1="232.2" x2="227.0" y2="201.5" stroke="#b6fffb" stroke-opacity="0.34" stroke-width="2"/><line x1="250.7" y1="229.1" x2="243.1" y2="195.9" stroke="#b6fffb" stroke-opacity="0.34" stroke-width="2"/><line x1="260.0" y1="228.0" x2="260.0" y2="194.0" stroke="#b6fffb" stroke-opacity="0.34" stroke-width="2"/><line x1="269.3" y1="229.1" x2="276.9" y2="195.9" stroke="#b6fffb" stroke-opacity="0.34" stroke-width="2"/><line x1="278.2" y1="232.2" x2="293.0" y2="201.5" stroke="#b6fffb" stroke-opacity="0.34" stroke-width="2"/><line x1="286.2" y1="237.2" x2="307.4" y2="210.6" stroke="#b6fffb" stroke-opacity="0.34" stroke-width="2"/><line x1="292.8" y1="243.8" x2="319.4" y2="222.6" stroke="#b6fffb" stroke-opacity="0.34" stroke-width="2"/><line x1="297.8" y1="251.8" x2="328.5" y2="237.0" stroke="#b6fffb" stroke-opacity="0.34" stroke-width="2"/><line x1="300.9" y1="260.7" x2="334.1" y2="253.1" stroke="#b6fffb" stroke-opacity="0.34" stroke-width="2"/></g>
    <g filter="url(#glow)">
      <circle cx="760" cy="760" r="118" fill="none" stroke="#4b5d7a" stroke-opacity="0.32" stroke-width="18"/>
      <circle cx="760" cy="760" r="98" fill="none" stroke="#2c3e59" stroke-opacity="0.5" stroke-width="10"/>
      <circle cx="760" cy="760" r="88" fill="#5eead4" fill-opacity="0.72" stroke="#0ea5a0" stroke-width="3"/>
      <circle cx="760" cy="760" r="34" fill="#020617"/>
    <line x1="802.0" y1="760.0" x2="836.0" y2="760.0" stroke="#b6fffb" stroke-opacity="0.34" stroke-width="2"/><line x1="800.9" y1="769.3" x2="834.1" y2="776.9" stroke="#b6fffb" stroke-opacity="0.34" stroke-width="2"/><line x1="797.8" y1="778.2" x2="828.5" y2="793.0" stroke="#b6fffb" stroke-opacity="0.34" stroke-width="2"/><line x1="792.8" y1="786.2" x2="819.4" y2="807.4" stroke="#b6fffb" stroke-opacity="0.34" stroke-width="2"/><line x1="786.2" y1="792.8" x2="807.4" y2="819.4" stroke="#b6fffb" stroke-opacity="0.34" stroke-width="2"/><line x1="778.2" y1="797.8" x2="793.0" y2="828.5" stroke="#b6fffb" stroke-opacity="0.34" stroke-width="2"/><line x1="769.3" y1="800.9" x2="776.9" y2="834.1" stroke="#b6fffb" stroke-opacity="0.34" stroke-width="2"/><line x1="760.0" y1="802.0" x2="760.0" y2="836.0" stroke="#b6fffb" stroke-opacity="0.34" stroke-width="2"/><line x1="750.7" y1="800.9" x2="743.1" y2="834.1" stroke="#b6fffb" stroke-opacity="0.34" stroke-width="2"/><line x1="741.8" y1="797.8" x2="727.0" y2="828.5" stroke="#b6fffb" stroke-opacity="0.34" stroke-width="2"/><line x1="733.8" y1="792.8" x2="712.6" y2="819.4" stroke="#b6fffb" stroke-opacity="0.34" stroke-width="2"/><line x1="727.2" y1="786.2" x2="700.6" y2="807.4" stroke="#b6fffb" stroke-opacity="0.34" stroke-width="2"/><line x1="722.2" y1="778.2" x2="691.5" y2="793.0" stroke="#b6fffb" stroke-opacity="0.34" stroke-width="2"/><line x1="719.1" y1="769.3" x2="685.9" y2="776.9" stroke="#b6fffb" stroke-opacity="0.34" stroke-width="2"/><line x1="718.0" y1="760.0" x2="684.0" y2="760.0" stroke="#b6fffb" stroke-opacity="0.34" stroke-width="2"/><line x1="719.1" y1="750.7" x2="685.9" y2="743.1" stroke="#b6fffb" stroke-opacity="0.34" stroke-width="2"/><line x1="722.2" y1="741.8" x2="691.5" y2="727.0" stroke="#b6fffb" stroke-opacity="0.34" stroke-width="2"/><line x1="727.2" y1="733.8" x2="700.6" y2="712.6" stroke="#b6fffb" stroke-opacity="0.34" stroke-width="2"/><line x1="733.8" y1="727.2" x2="712.6" y2="700.6" stroke="#b6fffb" stroke-opacity="0.34" stroke-width="2"/><line x1="741.8" y1="722.2" x2="727.0" y2="691.5" stroke="#b6fffb" stroke-opacity="0.34" stroke-width="2"/><line x1="750.7" y1="719.1" x2="743.1" y2="685.9" stroke="#b6fffb" stroke-opacity="0.34" stroke-width="2"/><line x1="760.0" y1="718.0" x2="760.0" y2="684.0" stroke="#b6fffb" stroke-opacity="0.34" stroke-width="2"/><line x1="769.3" y1="719.1" x2="776.9" y2="685.9" stroke="#b6fffb" stroke-opacity="0.34" stroke-width="2"/><line x1="778.2" y1="722.2" x2="793.0" y2="691.5" stroke="#b6fffb" stroke-opacity="0.34" stroke-width="2"/><line x1="786.2" y1="727.2" x2="807.4" y2="700.6" stroke="#b6fffb" stroke-opacity="0.34" stroke-width="2"/><line x1="792.8" y1="733.8" x2="819.4" y2="712.6" stroke="#b6fffb" stroke-opacity="0.34" stroke-width="2"/><line x1="797.8" y1="741.8" x2="828.5" y2="727.0" stroke="#b6fffb" stroke-opacity="0.34" stroke-width="2"/><line x1="800.9" y1="750.7" x2="834.1" y2="743.1" stroke="#b6fffb" stroke-opacity="0.34" stroke-width="2"/></g>
<g filter="url(#soft)">
  <polyline points="360.00,760.00 355.46,752.93 351.11,745.99 347.15,739.29 343.75,732.95 341.07,727.08 339.26,721.76 338.42,717.06 338.64,713.05 339.97,709.74 342.42,707.16 345.98,705.29 350.59,704.09 356.19,703.52 362.64,703.51 369.82,703.95 377.56,704.76 385.68,705.82 394.00,707.00 402.32,708.18 410.44,709.24 418.18,710.05 425.36,710.49 431.81,710.48 437.41,709.91 442.02,708.71 445.58,706.84 448.03,704.26 449.36,700.95 449.58,696.94 448.74,692.24 446.93,686.92 444.25,681.05 440.85,674.71 436.89,668.01 432.54,661.07 428.00,654.00 423.46,646.93 419.11,639.99 415.15,633.29 411.75,626.95 409.07,621.08 407.26,615.76 406.42,611.06 406.64,607.05 407.97,603.74 410.42,601.16 413.98,599.29 418.59,598.09 424.19,597.52 430.64,597.51 437.82,597.95 445.56,598.76 453.68,599.82 462.00,601.00 470.32,602.18 478.44,603.24 486.18,604.05 493.36,604.49 499.81,604.48 505.41,603.91 510.02,602.71 513.58,600.84 516.03,598.26 517.36,594.95 517.58,590.94 516.74,586.24 514.93,580.92 512.25,575.05 508.85,568.71 504.89,562.01 500.54,555.07 496.00,548.00 491.46,540.93 487.11,533.99 483.15,527.29 479.75,520.95 477.07,515.08 475.26,509.76 474.42,505.06 474.64,501.05 475.97,497.74 478.42,495.16 481.98,493.29 486.59,492.09 492.19,491.52 498.64,491.51 505.82,491.95 513.56,492.76 521.68,493.82 530.00,495.00 538.32,496.18 546.44,497.24 554.18,498.05 561.36,498.49 567.81,498.48 573.41,497.91 578.02,496.71 581.58,494.84 584.03,492.26 585.36,488.95 585.58,484.94 584.74,480.24 582.93,474.92 580.25,469.05 576.85,462.71 572.89,456.01 568.54,449.07 564.00,442.00 559.46,434.93 555.11,427.99 551.15,421.29 547.75,414.95 545.07,409.08 543.26,403.76 542.42,399.06 542.64,395.05 543.97,391.74 546.42,389.16 549.98,387.29 554.59,386.09 560.19,385.52 566.64,385.51 573.82,385.95 581.56,386.76 589.68,387.82 598.00,389.00 606.32,390.18 614.44,391.24 622.18,392.05 629.36,392.49 635.81,392.48 641.41,391.91 646.02,390.71 649.58,388.84 652.03,386.26 653.36,382.95 653.58,378.94 652.74,374.24 650.93,368.92 648.25,363.05 644.85,356.71 640.89,350.01 636.54,343.07 632.00,336.00 627.46,328.93 623.11,321.99 619.15,315.29 615.75,308.95 613.07,303.08 611.26,297.76 610.42,293.06 610.64,289.05 611.97,285.74 614.42,283.16 617.98,281.29 622.59,280.09 628.19,279.52 634.64,279.51 641.82,279.95 649.56,280.76 657.68,281.82 666.00,283.00 674.32,284.18 682.44,285.24 690.18,286.05 697.36,286.49 703.81,286.48 709.41,285.91 714.02,284.71 717.58,282.84 720.03,280.26 721.36,276.95 721.58,272.94 720.74,268.24 718.93,262.92 716.25,257.05 712.85,250.71 708.89,244.01 704.54,237.07 700.00,230.00" fill="none" stroke="#14b8a6" stroke-opacity="0.38" stroke-width="18" stroke-linecap="round" stroke-linejoin="round"/>
  <polyline points="360.00,760.00 368.32,761.18 376.44,762.24 384.18,763.05 391.36,763.49 397.81,763.48 403.41,762.91 408.02,761.71 411.58,759.84 414.03,757.26 415.36,753.95 415.58,749.94 414.74,745.24 412.93,739.92 410.25,734.05 406.85,727.71 402.89,721.01 398.54,714.07 394.00,707.00 389.46,699.93 385.11,692.99 381.15,686.29 377.75,679.95 375.07,674.08 373.26,668.76 372.42,664.06 372.64,660.05 373.97,656.74 376.42,654.16 379.98,652.29 384.59,651.09 390.19,650.52 396.64,650.51 403.82,650.95 411.56,651.76 419.68,652.82 428.00,654.00 436.32,655.18 444.44,656.24 452.18,657.05 459.36,657.49 465.81,657.48 471.41,656.91 476.02,655.71 479.58,653.84 482.03,651.26 483.36,647.95 483.58,643.94 482.74,639.24 480.93,633.92 478.25,628.05 474.85,621.71 470.89,615.01 466.54,608.07 462.00,601.00 457.46,593.93 453.11,586.99 449.15,580.29 445.75,573.95 443.07,568.08 441.26,562.76 440.42,558.06 440.64,554.05 441.97,550.74 444.42,548.16 447.98,546.29 452.59,545.09 458.19,544.52 464.64,544.51 471.82,544.95 479.56,545.76 487.68,546.82 496.00,548.00 504.32,549.18 512.44,550.24 520.18,551.05 527.36,551.49 533.81,551.48 539.41,550.91 544.02,549.71 547.58,547.84 550.03,545.26 551.36,541.95 551.58,537.94 550.74,533.24 548.93,527.92 546.25,522.05 542.85,515.71 538.89,509.01 534.54,502.07 530.00,495.00 525.46,487.93 521.11,480.99 517.15,474.29 513.75,467.95 511.07,462.08 509.26,456.76 508.42,452.06 508.64,448.05 509.97,444.74 512.42,442.16 515.98,440.29 520.59,439.09 526.19,438.52 532.64,438.51 539.82,438.95 547.56,439.76 555.68,440.82 564.00,442.00 572.32,443.18 580.44,444.24 588.18,445.05 595.36,445.49 601.81,445.48 607.41,444.91 612.02,443.71 615.58,441.84 618.03,439.26 619.36,435.95 619.58,431.94 618.74,427.24 616.93,421.92 614.25,416.05 610.85,409.71 606.89,403.01 602.54,396.07 598.00,389.00 593.46,381.93 589.11,374.99 585.15,368.29 581.75,361.95 579.07,356.08 577.26,350.76 576.42,346.06 576.64,342.05 577.97,338.74 580.42,336.16 583.98,334.29 588.59,333.09 594.19,332.52 600.64,332.51 607.82,332.95 615.56,333.76 623.68,334.82 632.00,336.00 640.32,337.18 648.44,338.24 656.18,339.05 663.36,339.49 669.81,339.48 675.41,338.91 680.02,337.71 683.58,335.84 686.03,333.26 687.36,329.95 687.58,325.94 686.74,321.24 684.93,315.92 682.25,310.05 678.85,303.71 674.89,297.01 670.54,290.07 666.00,283.00 661.46,275.93 657.11,268.99 653.15,262.29 649.75,255.95 647.07,250.08 645.26,244.76 644.42,240.06 644.64,236.05 645.97,232.74 648.42,230.16 651.98,228.29 656.59,227.09 662.19,226.52 668.64,226.51 675.82,226.95 683.56,227.76 691.68,228.82 700.00,230.00" fill="none" stroke="#97f7f3" stroke-opacity="0.32" stroke-width="18" stroke-linecap="round" stroke-linejoin="round"/>
  <polyline points="360.00,760.00 355.46,752.93 351.11,745.99 347.15,739.29 343.75,732.95 341.07,727.08 339.26,721.76 338.42,717.06 338.64,713.05 339.97,709.74 342.42,707.16 345.98,705.29 350.59,704.09 356.19,703.52 362.64,703.51 369.82,703.95 377.56,704.76 385.68,705.82 394.00,707.00 402.32,708.18 410.44,709.24 418.18,710.05 425.36,710.49 431.81,710.48 437.41,709.91 442.02,708.71 445.58,706.84 448.03,704.26 449.36,700.95 449.58,696.94 448.74,692.24 446.93,686.92 444.25,681.05 440.85,674.71 436.89,668.01 432.54,661.07 428.00,654.00 423.46,646.93 419.11,639.99 415.15,633.29 411.75,626.95 409.07,621.08 407.26,615.76 406.42,611.06 406.64,607.05 407.97,603.74 410.42,601.16 413.98,599.29 418.59,598.09 424.19,597.52 430.64,597.51 437.82,597.95 445.56,598.76 453.68,599.82 462.00,601.00 470.32,602.18 478.44,603.24 486.18,604.05 493.36,604.49 499.81,604.48 505.41,603.91 510.02,602.71 513.58,600.84 516.03,598.26 517.36,594.95 517.58,590.94 516.74,586.24 514.93,580.92 512.25,575.05 508.85,568.71 504.89,562.01 500.54,555.07 496.00,548.00 491.46,540.93 487.11,533.99 483.15,527.29 479.75,520.95 477.07,515.08 475.26,509.76 474.42,505.06 474.64,501.05 475.97,497.74 478.42,495.16 481.98,493.29 486.59,492.09 492.19,491.52 498.64,491.51 505.82,491.95 513.56,492.76 521.68,493.82 530.00,495.00 538.32,496.18 546.44,497.24 554.18,498.05 561.36,498.49 567.81,498.48 573.41,497.91 578.02,496.71 581.58,494.84 584.03,492.26 585.36,488.95 585.58,484.94 584.74,480.24 582.93,474.92 580.25,469.05 576.85,462.71 572.89,456.01 568.54,449.07 564.00,442.00 559.46,434.93 555.11,427.99 551.15,421.29 547.75,414.95 545.07,409.08 543.26,403.76 542.42,399.06 542.64,395.05 543.97,391.74 546.42,389.16 549.98,387.29 554.59,386.09 560.19,385.52 566.64,385.51 573.82,385.95 581.56,386.76 589.68,387.82 598.00,389.00 606.32,390.18 614.44,391.24 622.18,392.05 629.36,392.49 635.81,392.48 641.41,391.91 646.02,390.71 649.58,388.84 652.03,386.26 653.36,382.95 653.58,378.94 652.74,374.24 650.93,368.92 648.25,363.05 644.85,356.71 640.89,350.01 636.54,343.07 632.00,336.00 627.46,328.93 623.11,321.99 619.15,315.29 615.75,308.95 613.07,303.08 611.26,297.76 610.42,293.06 610.64,289.05 611.97,285.74 614.42,283.16 617.98,281.29 622.59,280.09 628.19,279.52 634.64,279.51 641.82,279.95 649.56,280.76 657.68,281.82 666.00,283.00 674.32,284.18 682.44,285.24 690.18,286.05 697.36,286.49 703.81,286.48 709.41,285.91 714.02,284.71 717.58,282.84 720.03,280.26 721.36,276.95 721.58,272.94 720.74,268.24 718.93,262.92 716.25,257.05 712.85,250.71 708.89,244.01 704.54,237.07 700.00,230.00" fill="none" stroke="#1cc2b2" stroke-width="10" stroke-linecap="round" stroke-linejoin="round"/>
  <polyline points="360.00,760.00 368.32,761.18 376.44,762.24 384.18,763.05 391.36,763.49 397.81,763.48 403.41,762.91 408.02,761.71 411.58,759.84 414.03,757.26 415.36,753.95 415.58,749.94 414.74,745.24 412.93,739.92 410.25,734.05 406.85,727.71 402.89,721.01 398.54,714.07 394.00,707.00 389.46,699.93 385.11,692.99 381.15,686.29 377.75,679.95 375.07,674.08 373.26,668.76 372.42,664.06 372.64,660.05 373.97,656.74 376.42,654.16 379.98,652.29 384.59,651.09 390.19,650.52 396.64,650.51 403.82,650.95 411.56,651.76 419.68,652.82 428.00,654.00 436.32,655.18 444.44,656.24 452.18,657.05 459.36,657.49 465.81,657.48 471.41,656.91 476.02,655.71 479.58,653.84 482.03,651.26 483.36,647.95 483.58,643.94 482.74,639.24 480.93,633.92 478.25,628.05 474.85,621.71 470.89,615.01 466.54,608.07 462.00,601.00 457.46,593.93 453.11,586.99 449.15,580.29 445.75,573.95 443.07,568.08 441.26,562.76 440.42,558.06 440.64,554.05 441.97,550.74 444.42,548.16 447.98,546.29 452.59,545.09 458.19,544.52 464.64,544.51 471.82,544.95 479.56,545.76 487.68,546.82 496.00,548.00 504.32,549.18 512.44,550.24 520.18,551.05 527.36,551.49 533.81,551.48 539.41,550.91 544.02,549.71 547.58,547.84 550.03,545.26 551.36,541.95 551.58,537.94 550.74,533.24 548.93,527.92 546.25,522.05 542.85,515.71 538.89,509.01 534.54,502.07 530.00,495.00 525.46,487.93 521.11,480.99 517.15,474.29 513.75,467.95 511.07,462.08 509.26,456.76 508.42,452.06 508.64,448.05 509.97,444.74 512.42,442.16 515.98,440.29 520.59,439.09 526.19,438.52 532.64,438.51 539.82,438.95 547.56,439.76 555.68,440.82 564.00,442.00 572.32,443.18 580.44,444.24 588.18,445.05 595.36,445.49 601.81,445.48 607.41,444.91 612.02,443.71 615.58,441.84 618.03,439.26 619.36,435.95 619.58,431.94 618.74,427.24 616.93,421.92 614.25,416.05 610.85,409.71 606.89,403.01 602.54,396.07 598.00,389.00 593.46,381.93 589.11,374.99 585.15,368.29 581.75,361.95 579.07,356.08 577.26,350.76 576.42,346.06 576.64,342.05 577.97,338.74 580.42,336.16 583.98,334.29 588.59,333.09 594.19,332.52 600.64,332.51 607.82,332.95 615.56,333.76 623.68,334.82 632.00,336.00 640.32,337.18 648.44,338.24 656.18,339.05 663.36,339.49 669.81,339.48 675.41,338.91 680.02,337.71 683.58,335.84 686.03,333.26 687.36,329.95 687.58,325.94 686.74,321.24 684.93,315.92 682.25,310.05 678.85,303.71 674.89,297.01 670.54,290.07 666.00,283.00 661.46,275.93 657.11,268.99 653.15,262.29 649.75,255.95 647.07,250.08 645.26,244.76 644.42,240.06 644.64,236.05 645.97,232.74 648.42,230.16 651.98,228.29 656.59,227.09 662.19,226.52 668.64,226.51 675.82,226.95 683.56,227.76 691.68,228.82 700.00,230.00" fill="none" stroke="#7ef1ec" stroke-width="10" stroke-linecap="round" stroke-linejoin="round"/>
<line x1="401.97" y1="763.12" x2="339.66" y2="723.15" stroke="#8de9ea" stroke-opacity="0.72" stroke-width="6" stroke-linecap="round"/><line x1="377.47" y1="679.40" x2="425.98" y2="710.51" stroke="#8de9ea" stroke-opacity="0.72" stroke-width="6" stroke-linecap="round"/><line x1="448.02" y1="656.64" x2="417.25" y2="636.90" stroke="#8de9ea" stroke-opacity="0.72" stroke-width="6" stroke-linecap="round"/><line x1="458.27" y1="595.21" x2="468.82" y2="601.97" stroke="#8de9ea" stroke-opacity="0.72" stroke-width="6" stroke-linecap="round"/><line x1="489.18" y1="547.03" x2="499.73" y2="553.79" stroke="#8de9ea" stroke-opacity="0.72" stroke-width="6" stroke-linecap="round"/><line x1="540.75" y1="512.10" x2="509.98" y2="492.36" stroke="#8de9ea" stroke-opacity="0.72" stroke-width="6" stroke-linecap="round"/><line x1="532.02" y1="438.49" x2="580.53" y2="469.60" stroke="#8de9ea" stroke-opacity="0.72" stroke-width="6" stroke-linecap="round"/><line x1="618.34" y1="425.85" x2="556.03" y2="385.88" stroke="#8de9ea" stroke-opacity="0.72" stroke-width="6" stroke-linecap="round"/><line x1="582.56" y1="334.89" x2="653.63" y2="380.48" stroke="#8de9ea" stroke-opacity="0.72" stroke-width="6" stroke-linecap="round"/><line x1="686.03" y1="333.26" x2="611.97" y2="285.74" stroke="#8de9ea" stroke-opacity="0.72" stroke-width="6" stroke-linecap="round"/><line x1="644.37" y1="238.52" x2="715.44" y2="284.11" stroke="#8de9ea" stroke-opacity="0.72" stroke-width="6" stroke-linecap="round"/></g>
    <g filter="url(#glow)">
      <line x1="260" y1="270" x2="524.57" y2="551.36" stroke="#5eead4" stroke-opacity="0.22" stroke-width="12" stroke-linecap="round"/>
      <line x1="260" y1="270" x2="524.57" y2="551.36" stroke="#8df5f1" stroke-width="4" stroke-linecap="round"/>
    </g>
    
    <g filter="url(#glow)">
      <line x1="760" y1="760" x2="549.18" y2="387.60" stroke="#5eead4" stroke-opacity="0.22" stroke-width="12" stroke-linecap="round"/>
      <line x1="760" y1="760" x2="549.18" y2="387.60" stroke="#8df5f1" stroke-width="4" stroke-linecap="round"/>
    </g>
    
    <circle cx="524.57" cy="551.36" r="46" fill="none" stroke="#5eead4" stroke-opacity="0.36" stroke-width="4"/>
    <circle cx="524.57" cy="551.36" r="16" fill="#8de9ea"/>
    
    <circle cx="549.18" cy="387.60" r="46" fill="none" stroke="#5eead4" stroke-opacity="0.36" stroke-width="4"/>
    <circle cx="549.18" cy="387.60" r="16" fill="#8de9ea"/>
    
  </g>
</svg>
